<?xml version="1.0" encoding="UTF-8" standalone="no"?>
<!-- Generator: Adobe Illustrator 18.1.1, SVG Export Plug-In . SVG Version: 6.00 Build 0)  -->

<svg
   version="1.1"
   id="Capa_1"
   x="0px"
   y="0px"
   viewBox="0 0 326.54 326.54"
   style="enable-background:new 0 0 326.54 326.54;"
   xml:space="preserve"
   sodipodi:docname="icon-arrow.svg"
   inkscape:version="1.2.1 (9c6d41e410, 2022-07-14)"
   xmlns:inkscape="http://www.inkscape.org/namespaces/inkscape"
   xmlns:sodipodi="http://sodipodi.sourceforge.net/DTD/sodipodi-0.dtd"
   xmlns="http://www.w3.org/2000/svg"
   xmlns:svg="http://www.w3.org/2000/svg"><defs
   id="defs28962" /><sodipodi:namedview
   id="namedview28960"
   pagecolor="#ffffff"
   bordercolor="#000000"
   borderopacity="0.25"
   inkscape:showpageshadow="2"
   inkscape:pageopacity="0.0"
   inkscape:pagecheckerboard="0"
   inkscape:deskcolor="#d1d1d1"
   showgrid="false"
   inkscape:zoom="1.6077662"
   inkscape:cx="162.95901"
   inkscape:cy="163.58099"
   inkscape:window-width="1366"
   inkscape:window-height="705"
   inkscape:window-x="-8"
   inkscape:window-y="-8"
   inkscape:window-maximized="1"
   inkscape:current-layer="g28927" />
<g
   id="g28927"
   style="fill:#ffffff;fill-opacity:1;stroke:#000000;stroke-opacity:1">
	<g
   id="g28925"
   style="fill:#ffffff;fill-opacity:1;stroke:#000000;stroke-opacity:1"
   transform="rotate(179.98447,164.03795,165.02252)">
		<polygon
   style="fill:#ffffff;fill-opacity:1;stroke:#000000;stroke-opacity:1"
   points="127.247,196.328 110.984,212.608 94.71,196.345 81.983,209.083 98.257,225.346 81.999,241.62 94.732,254.347 110.995,238.073 127.274,254.331 140.002,241.598 123.722,225.335 139.985,209.056 "
   id="polygon28913" />
		<polygon
   style="fill:#ffffff;fill-opacity:1;stroke:#000000;stroke-opacity:1"
   points="208.169,99.372 224.448,115.629 208.186,131.908 220.924,144.636 237.187,128.356 253.46,144.619 266.188,131.881 249.914,115.618 266.177,99.345 253.439,86.617 237.176,102.891 220.897,86.633 "
   id="polygon28915" />
		<path
   style="fill:#ffffff;fill-opacity:1;stroke:#000000;stroke-opacity:1"
   d="m 247.744,197.889 c 2.953,-3.65 3.818,-8.556 2.29,-12.994 -1.528,-4.438 -5.238,-7.772 -9.807,-8.822 L 111.289,146.436 199.25,71.013 c 3.019,-2.584 4.748,-6.353 4.748,-10.318 V 38.373 h 24.139 L 189.764,0 151.391,38.373 h 25.406 v 16.062 l -103.669,88.89 c -3.9,3.34 -5.58,8.588 -4.357,13.57 1.224,4.982 5.156,8.849 10.155,10.002 l 133.964,30.796 -43.442,53.613 21.131,17.122 z"
   id="path28917" />
		<path
   style="fill:#ffffff;fill-opacity:1;stroke:#000000;stroke-opacity:1"
   d="m 153.751,326.54 c 16.355,0 29.616,-13.26 29.616,-29.616 0,-16.356 -13.26,-29.616 -29.616,-29.616 -16.356,0 -29.616,13.26 -29.616,29.616 0,16.356 13.261,29.616 29.616,29.616 z m 0,-42.92 c 7.332,0 13.299,5.967 13.299,13.299 0,7.332 -5.961,13.304 -13.299,13.304 -7.338,0 -13.299,-5.967 -13.299,-13.299 0,-7.332 5.968,-13.304 13.299,-13.304 z"
   id="path28919" />
		<path
   style="fill:#ffffff;fill-opacity:1;stroke:#000000;stroke-opacity:1"
   d="m 295.167,157.635 c -16.355,0 -29.616,13.26 -29.616,29.616 0,16.356 13.26,29.616 29.616,29.616 16.355,0 29.616,-13.26 29.616,-29.616 0.005,-16.356 -13.255,-29.616 -29.616,-29.616 z m 0,42.92 c -7.332,0 -13.299,-5.967 -13.299,-13.299 0,-7.332 5.967,-13.299 13.299,-13.299 7.332,0 13.298,5.967 13.298,13.299 0.006,7.332 -5.961,13.299 -13.298,13.299 z"
   id="path28921" />
		<path
   style="fill:#ffffff;fill-opacity:1;stroke:#000000;stroke-opacity:1"
   d="m 31.373,192.983 c 16.355,0 29.616,-13.26 29.616,-29.616 0,-16.356 -13.26,-29.616 -29.616,-29.616 -16.356,0 -29.616,13.26 -29.616,29.616 0,16.356 13.26,29.616 29.616,29.616 z m 0,-42.914 c 7.332,0 13.299,5.967 13.299,13.299 0,7.332 -5.967,13.299 -13.299,13.299 -7.332,0 -13.299,-5.967 -13.299,-13.299 0,-7.332 5.967,-13.299 13.299,-13.299 z"
   id="path28923" />
	</g>
</g>
<g
   id="g28929">
</g>
<g
   id="g28931">
</g>
<g
   id="g28933">
</g>
<g
   id="g28935">
</g>
<g
   id="g28937">
</g>
<g
   id="g28939">
</g>
<g
   id="g28941">
</g>
<g
   id="g28943">
</g>
<g
   id="g28945">
</g>
<g
   id="g28947">
</g>
<g
   id="g28949">
</g>
<g
   id="g28951">
</g>
<g
   id="g28953">
</g>
<g
   id="g28955">
</g>
<g
   id="g28957">
</g>
</svg>
