<?xml version="1.0" encoding="UTF-8" standalone="no"?>
<!-- Generator: Adobe Illustrator 19.0.0, SVG Export Plug-In . SVG Version: 6.00 Build 0)  -->

<svg
   version="1.1"
   id="Layer_1"
   x="0px"
   y="0px"
   viewBox="0 0 496.2 496.2"
   style="enable-background:new 0 0 496.2 496.2;"
   xml:space="preserve"
   sodipodi:docname="logo-world-cup.svg"
   inkscape:version="1.2.1 (9c6d41e410, 2022-07-14)"
   xmlns:inkscape="http://www.inkscape.org/namespaces/inkscape"
   xmlns:sodipodi="http://sodipodi.sourceforge.net/DTD/sodipodi-0.dtd"
   xmlns="http://www.w3.org/2000/svg"
   xmlns:svg="http://www.w3.org/2000/svg"><defs
   id="defs83"><linearGradient
     id="linearGradient19643"
     inkscape:swatch="solid"><stop
       style="stop-color:#000000;stop-opacity:1;"
       offset="0"
       id="stop19641" /></linearGradient></defs><sodipodi:namedview
   id="namedview81"
   pagecolor="#ffffff"
   bordercolor="#000000"
   borderopacity="0.25"
   inkscape:showpageshadow="2"
   inkscape:pageopacity="0.0"
   inkscape:pagecheckerboard="0"
   inkscape:deskcolor="#d1d1d1"
   showgrid="false"
   inkscape:zoom="1.0580411"
   inkscape:cx="263.69486"
   inkscape:cy="375.69429"
   inkscape:window-width="1350"
   inkscape:window-height="728"
   inkscape:window-x="0"
   inkscape:window-y="0"
   inkscape:window-maximized="0"
   inkscape:current-layer="Layer_1" />
<style
   id="style2">
	@import url('https://fonts.googleapis.com/css?family=Open+Sans');
</style>

<g
   id="g31206"
   transform="matrix(0.93539063,0,0,0.79173593,7.7683606,4.045)"
   style="stroke-width:1.16202"><g
     id="g31148"
     style="stroke-width:1.16202">
	<polygon
   style="fill:#ffcc67;stroke-width:1.16202"
   points="200.096,182.368 256.416,139.304 312.728,182.376 291.224,112.696 346.712,70.264 278.12,70.264 256.416,0 234.712,70.264 166.104,70.264 221.608,112.696 "
   id="polygon31138" />
	<polygon
   style="fill:#ffcc67;stroke-width:1.16202"
   points="34.408,313.4 90.728,270.336 147.04,313.4 125.528,243.728 181.032,201.304 112.432,201.304 90.728,131.032 69.016,201.304 0.408,201.304 55.92,243.728 "
   id="polygon31140" />
	<polygon
   style="fill:#ffcc67;stroke-width:1.16202"
   points="365.784,313.4 422.104,270.336 478.416,313.4 456.904,243.728 512.408,201.304 443.808,201.304 422.104,131.032 400.392,201.304 331.784,201.304 387.296,243.728 "
   id="polygon31142" />
	<polygon
   style="fill:#ffcc67;stroke-width:1.16202"
   points="301.64,512.816 357.96,469.752 414.272,512.816 392.76,443.136 448.264,400.712 379.656,400.712 357.96,330.432 336.248,400.712 267.64,400.712 323.144,443.136 "
   id="polygon31144" />
	<polygon
   style="fill:#ffcc67;stroke-width:1.16202"
   points="98.552,512.816 154.872,469.752 211.184,512.816 189.672,443.136 245.176,400.712 176.576,400.712 154.872,330.432 133.168,400.712 64.552,400.712 120.064,443.136 "
   id="polygon31146" />
</g><g
     id="g31150"
     style="stroke-width:1.16202">
</g><g
     id="g31152"
     style="stroke-width:1.16202">
</g><g
     id="g31154"
     style="stroke-width:1.16202">
</g><g
     id="g31156"
     style="stroke-width:1.16202">
</g><g
     id="g31158"
     style="stroke-width:1.16202">
</g><g
     id="g31160"
     style="stroke-width:1.16202">
</g><g
     id="g31162"
     style="stroke-width:1.16202">
</g><g
     id="g31164"
     style="stroke-width:1.16202">
</g><g
     id="g31166"
     style="stroke-width:1.16202">
</g><g
     id="g31168"
     style="stroke-width:1.16202">
</g><g
     id="g31170"
     style="stroke-width:1.16202">
</g><g
     id="g31172"
     style="stroke-width:1.16202">
</g><g
     id="g31174"
     style="stroke-width:1.16202">
</g><g
     id="g31176"
     style="stroke-width:1.16202">
</g><g
     id="g31178"
     style="stroke-width:1.16202">
</g></g><path
   style="fill:#bc7f04"
   d="m 168.71943,177.196 c 0,0 3.8,-5.9 7.9,-5.9 4,0 3.6,17.4 3.6,17.4 z"
   id="path6" />
<circle
   style="fill:#e2a01a"
   cx="245.41943"
   cy="159.59619"
   id="circle8"
   r="69.400002" />
<path
   style="fill:#eda932;fill-opacity:1"
   d="m 196.31943,110.496 c 27.1,-27.099999 71.1,-27.099999 98.2,0 27.1,27.1 -71.1,125.3 -98.2,98.2 -27.1,-27.2 -27.1,-71.1 0,-98.2 z"
   id="path10" />
<path
   style="fill:#f4ba5b"
   d="m 269.71943,97.396001 c -36.6,-11.5 -75.5,8.899999 -87,45.399999 -11.5,36.6 123.6,-34 87,-45.399999 z"
   id="path12" />
<path
   style="fill:#ffcd5c"
   d="m 168.71943,177.196 c 0,0 21.9,103.8 38.9,131.7 l 39.5,46.7 20.9,-51.4 -17.8,-130.7 c 0,0 -10.3,29.8 -36.4,30.4 -18.2,0.4 -22.3,-6.5 -32.4,-23.1 -1.4,-2.1 -8.3,-4.8 -12.7,-3.6 z"
   id="path14" />
<path
   style="fill:#f9c04e"
   d="m 185.41943,212.996 c 0,0 22.2,60.3 51.7,111.9 0,0 -26.1,-71.5 -51.7,-111.9 z"
   id="path16" />
<path
   style="fill:#f9bb41"
   d="m 207.51943,308.896 c 0,0 4.4,52.2 6.2,78.3 l 31.4,-40.1 z"
   id="path18" />
<path
   style="fill:#e5a70c"
   d="m 285.21943,204.496 c 9.7,-5.1 23.7,-10.3 24.3,-44.9 l 7.3,5.5 -3.6,36.4 -21.9,43.1 -24.9,-12.1 -6.1,-24.9 c 0.1,-0.1 15.2,1.9 24.9,-3.1 z"
   id="path20" />
<path
   style="fill:#ffc431"
   d="m 270.11943,361.096 c 0,0 9.1,42.1 15.8,53.4 0,0 -32.8,23.7 -80.1,0 l 1.8,-6.7 z"
   id="path22" />
<path
   style="fill:#fcc74f"
   d="m 245.21943,361.096 v 63.9 c -11.4,-0.3 -24.7,-3.1 -39.5,-10.5 l 1.8,-6.7 z"
   id="path24" />
<path
   style="fill:#80bc9c"
   d="m 295.81943,436.996 c 0,0 -18.4,5.4 -50,5.4 -31.7,0 -49.9,-5.4 -49.9,-5.4 l 9.9,-22.5 c 0,0 15.2,5.4 40,5.4 24.8,0 40.1,-5.4 40.1,-5.4 z"
   id="path26" />
<path
   style="fill:#9ed8b9"
   d="m 245.71943,442.396 c -31.7,0 -49.9,-5.4 -49.9,-5.4 l 9.9,-22.5 c 0,0 15.2,5.4 40,5.4 z"
   id="path28" />
<path
   style="fill:#80bc9c"
   d="m 313.11943,477.496 -6.9,-16.8 c -0.6,-1.5 -29.3,-9.1 -60.5,-9.1 -31.2,0 -59.7,7.6 -60.3,9.1 l -6.9,16.8 c -0.3,0.8 -0.3,1.8 0,2.6 0.3,0.8 1,1.4 1.8,1.7 1,0.3 24.5,7.7 65.5,7.7 41,0 64.6,-7.4 65.6,-7.7 0.8,-0.3 1.4,-0.9 1.8,-1.7 0.4,-0.8 0.3,-1.8 -0.1,-2.6 z"
   id="path30" />
<path
   style="fill:#9ed8b9"
   d="m 245.71943,451.596 c -31.2,0 -59.7,7.6 -60.3,9.1 l -6.9,16.8 c -0.3,0.8 -0.3,1.8 0,2.6 0.3,0.8 1,1.4 1.8,1.7 1,0.3 24.5,7.7 65.5,7.7 v -37.9 z"
   id="path32" />
<path
   style="fill:#ffd16c"
   d="m 306.21943,460.696 c 0,0 -22.2,6.5 -60.5,6.5 -38.3,0 -60.3,-6.5 -60.3,-6.5 l 12,-27.1 c 0,0 18.4,6.5 48.4,6.5 30,0 48.5,-6.5 48.5,-6.5 z"
   id="path34" />
<path
   style="fill:#fcd486"
   d="m 245.71943,467.196 c -38.3,0 -60.3,-6.5 -60.3,-6.5 l 12,-27.1 c 0,0 18.4,6.5 48.4,6.5 v 27.1 z"
   id="path36" />
<path
   style="fill:#d89319"
   d="m 298.61943,224.196 c 0,0 -8.5,19.4 -11.5,19.4 -3,0 -18.2,-12.4 -18.2,-12.4 l -4.7,-27.9 z"
   id="path38" />
<path
   style="fill:#e2a01a"
   d="m 270.71943,207.496 c 0,0 -4.6,5.2 -1.2,8.2 3.3,3 7.6,6.7 10.9,7.9 3.3,1.2 10.6,3.9 13.1,3.3 2.4,-0.6 6.7,-2.1 3.6,-9.1 -3,-7 -5.8,-12.7 -14.3,-13.1 -8.5,-0.2 -9.4,0.7 -12.1,2.8 z"
   id="path40" />
<path
   style="fill:#f2b408"
   d="m 309.51943,159.596 c 0,0 4.2,-4.2 6.1,-2.4 1.8,1.8 8.5,13.4 1.8,35.8 -6.7,22.5 -15.2,58.3 -19.4,69.8 -4.2,11.5 -31,-9.1 -31,-9.1 l 0.8,-22.7 c 0,0 3.6,-0.1 9,2 5.5,2.1 12.1,9.1 12.1,9.1 0,0 41.9,-69.2 20.6,-82.5 z"
   id="path42" />
<path
   style="fill:#ffc431"
   d="m 246.41943,170.496 c 0,0 16.4,116.6 5.5,157.9 l 15.7,-41.6 0.7,-33 0.6,-22.5 c 0,0 -12.1,-74.7 -16.4,-74.7 -4.3,-0.1 -5.8,5.1 -6.1,13.9 z"
   id="path44" />
<path
   style="fill:#e2a50c"
   d="m 213.61943,386.596 c 0,0 54,-67.4 54.6,-133 0,0 12.1,10.3 29.7,9.1 0,0 -11.5,25.5 -11.5,51 0,0 0,80.2 -78.9,94.1 z"
   id="path46" />
<path
   style="fill:#d89a0f"
   d="m 213.71943,396.996 c 0,0 69.6,-72.3 70.1,-124.4 0,0 12.4,52.3 -70.1,124.4 z"
   id="path48" />

<g
   id="g50">
</g>
<g
   id="g52">
</g>
<g
   id="g54">
</g>
<g
   id="g56">
</g>
<g
   id="g58">
</g>
<g
   id="g60">
</g>
<g
   id="g62">
</g>
<g
   id="g64">
</g>
<g
   id="g66">
</g>
<g
   id="g68">
</g>
<g
   id="g70">
</g>
<g
   id="g72">
</g>
<g
   id="g74">
</g>
<g
   id="g76">
</g>
<g
   id="g78">
</g>
</svg>
