<?xml version="1.0" encoding="UTF-8" standalone="no"?>
<!-- Generator: Adobe Illustrator 19.0.0, SVG Export Plug-In . SVG Version: 6.00 Build 0)  -->

<svg
   version="1.1"
   id="Layer_1"
   x="0px"
   y="0px"
   viewBox="0 0 496.2 496.2"
   style="enable-background:new 0 0 496.2 496.2;"
   xml:space="preserve"
   sodipodi:docname="logo-world-cup.svg"
   inkscape:version="1.2.1 (9c6d41e410, 2022-07-14)"
   xmlns:inkscape="http://www.inkscape.org/namespaces/inkscape"
   xmlns:sodipodi="http://sodipodi.sourceforge.net/DTD/sodipodi-0.dtd"
   xmlns="http://www.w3.org/2000/svg"
   xmlns:svg="http://www.w3.org/2000/svg"><defs
   id="defs83"><linearGradient
     id="linearGradient19643"
     inkscape:swatch="solid"><stop
       style="stop-color:#000000;stop-opacity:1;"
       offset="0"
       id="stop19641" /></linearGradient></defs><sodipodi:namedview
   id="namedview81"
   pagecolor="#ffffff"
   bordercolor="#000000"
   borderopacity="0.25"
   inkscape:showpageshadow="2"
   inkscape:pageopacity="0.0"
   inkscape:pagecheckerboard="0"
   inkscape:deskcolor="#d1d1d1"
   showgrid="false"
   inkscape:zoom="1.0580411"
   inkscape:cx="263.69486"
   inkscape:cy="376.16686"
   inkscape:window-width="1920"
   inkscape:window-height="1017"
   inkscape:window-x="-8"
   inkscape:window-y="-8"
   inkscape:window-maximized="1"
   inkscape:current-layer="Layer_1"
   inkscape:lockguides="true" />
<style
   id="style2">
	@import url('https://fonts.googleapis.com/css?family=Open+Sans');
</style>

<g
   id="g31206"
   transform="matrix(0.96458771,0,0,0.90416302,1.1405277,4.0231198)"
   style="stroke:#eda932;stroke-width:2.46282;stroke-linejoin:miter;stroke-dasharray:none;stroke-opacity:1"><g
     id="g31148"
     style="stroke:#eda932;stroke-width:2.46283;stroke-linejoin:miter;stroke-dasharray:none;stroke-opacity:1">
	<polygon
   style="fill:#ffcc67;stroke:#eda932;stroke-width:2.46283;stroke-linejoin:miter;stroke-dasharray:none;stroke-opacity:1"
   points="221.608,112.696 200.096,182.368 256.416,139.304 312.728,182.376 291.224,112.696 346.712,70.264 278.12,70.264 256.416,0 234.712,70.264 166.104,70.264 "
   id="polygon31138" />
	<polygon
   style="fill:#ffcc67;stroke:#eda932;stroke-width:2.46283;stroke-linejoin:miter;stroke-dasharray:none;stroke-opacity:1"
   points="55.92,243.728 34.408,313.4 90.728,270.336 147.04,313.4 125.528,243.728 181.032,201.304 112.432,201.304 90.728,131.032 69.016,201.304 0.408,201.304 "
   id="polygon31140" />
	<polygon
   style="fill:#ffcc67;stroke:#eda932;stroke-width:2.46283;stroke-linejoin:miter;stroke-dasharray:none;stroke-opacity:1"
   points="387.296,243.728 365.784,313.4 422.104,270.336 478.416,313.4 456.904,243.728 512.408,201.304 443.808,201.304 422.104,131.032 400.392,201.304 331.784,201.304 "
   id="polygon31142" />
	<polygon
   style="fill:#ffcc67;stroke:#eda932;stroke-width:2.46283;stroke-linejoin:miter;stroke-dasharray:none;stroke-opacity:1"
   points="323.144,443.136 301.64,512.816 357.96,469.752 414.272,512.816 392.76,443.136 448.264,400.712 379.656,400.712 357.96,330.432 336.248,400.712 267.64,400.712 "
   id="polygon31144" />
	<polygon
   style="fill:#ffcc67;stroke:#eda932;stroke-width:2.46283;stroke-linejoin:miter;stroke-dasharray:none;stroke-opacity:1"
   points="120.064,443.136 98.552,512.816 154.872,469.752 211.184,512.816 189.672,443.136 245.176,400.712 176.576,400.712 154.872,330.432 133.168,400.712 64.552,400.712 "
   id="polygon31146" />
</g><g
     id="g31150"
     style="stroke:#eda932;stroke-width:2.46283;stroke-linejoin:miter;stroke-dasharray:none;stroke-opacity:1">
</g><g
     id="g31152"
     style="stroke:#eda932;stroke-width:2.46283;stroke-linejoin:miter;stroke-dasharray:none;stroke-opacity:1">
</g><g
     id="g31154"
     style="stroke:#eda932;stroke-width:2.46283;stroke-linejoin:miter;stroke-dasharray:none;stroke-opacity:1">
</g><g
     id="g31156"
     style="stroke:#eda932;stroke-width:2.46283;stroke-linejoin:miter;stroke-dasharray:none;stroke-opacity:1">
</g><g
     id="g31158"
     style="stroke:#eda932;stroke-width:2.46283;stroke-linejoin:miter;stroke-dasharray:none;stroke-opacity:1">
</g><g
     id="g31160"
     style="stroke:#eda932;stroke-width:2.46283;stroke-linejoin:miter;stroke-dasharray:none;stroke-opacity:1">
</g><g
     id="g31162"
     style="stroke:#eda932;stroke-width:2.46283;stroke-linejoin:miter;stroke-dasharray:none;stroke-opacity:1">
</g><g
     id="g31164"
     style="stroke:#eda932;stroke-width:2.46283;stroke-linejoin:miter;stroke-dasharray:none;stroke-opacity:1">
</g><g
     id="g31166"
     style="stroke:#eda932;stroke-width:2.46283;stroke-linejoin:miter;stroke-dasharray:none;stroke-opacity:1">
</g><g
     id="g31168"
     style="stroke:#eda932;stroke-width:2.46283;stroke-linejoin:miter;stroke-dasharray:none;stroke-opacity:1">
</g><g
     id="g31170"
     style="stroke:#eda932;stroke-width:2.46283;stroke-linejoin:miter;stroke-dasharray:none;stroke-opacity:1">
</g><g
     id="g31172"
     style="stroke:#eda932;stroke-width:2.46283;stroke-linejoin:miter;stroke-dasharray:none;stroke-opacity:1">
</g><g
     id="g31174"
     style="stroke:#eda932;stroke-width:2.46283;stroke-linejoin:miter;stroke-dasharray:none;stroke-opacity:1">
</g><g
     id="g31176"
     style="stroke:#eda932;stroke-width:2.46283;stroke-linejoin:miter;stroke-dasharray:none;stroke-opacity:1">
</g><g
     id="g31178"
     style="stroke:#eda932;stroke-width:2.46283;stroke-linejoin:miter;stroke-dasharray:none;stroke-opacity:1">
</g></g><path
   style="fill:#bc7f04;stroke:#ffcc67;stroke-width:1;stroke-opacity:1"
   d="m 171.57006,161.75607 c 0,0 3.77242,-5.17409 7.84264,-5.17409 3.97096,0 3.57386,15.25917 3.57386,15.25917 z"
   id="path6" />
<ellipse
   style="fill:#e2a01a;stroke:#ffcc67;stroke-width:1;stroke-opacity:1"
   cx="247.71317"
   cy="146.32172"
   id="circle8"
   rx="68.896111"
   ry="60.861244" />
<path
   style="fill:#eda932;fill-opacity:1;stroke:#ffcc67;stroke-width:1;stroke-opacity:1"
   d="m 198.96966,103.26264 c 26.90324,-23.765703 70.58378,-23.765703 97.48701,0 26.90323,23.76568 -70.58377,109.88349 -97.48701,86.11777 -26.90322,-23.8534 -26.90322,-62.35209 0,-86.11777 z"
   id="path10" />
<path
   style="fill:#f4ba5b;stroke:#ffcc67;stroke-width:1;stroke-opacity:1"
   d="M 271.83674,91.774431 C 235.50248,81.689339 196.88491,99.579379 185.46842,131.58855 174.0519,163.68539 308.17099,101.77181 271.83674,91.774431 Z"
   id="path12" />
<path
   style="fill:#ffcd5c;stroke:#ffcc67;stroke-width:1;stroke-opacity:1"
   d="m 171.57006,161.75607 c 0,0 21.741,91.02878 38.61756,115.49605 l 39.21321,40.95418 20.74825,-45.07589 -17.67076,-114.6191 c 0,0 -10.22521,26.13352 -36.13571,26.65967 -18.06786,0.35081 -22.1381,-5.70025 -32.16475,-20.25783 -1.38984,-1.84164 -8.23974,-4.20942 -12.6078,-3.15708 z"
   id="path14" />
<path
   style="fill:#f9c04e;stroke:#ffcc67;stroke-width:1;stroke-opacity:1"
   d="m 188.14882,193.15136 c 0,0 22.0388,52.88089 51.32462,98.13217 0,0 -25.91051,-62.70287 -51.32462,-98.13217 z"
   id="path16" />
<path
   style="fill:#f9bb41;stroke:#ffcc67;stroke-width:1;stroke-opacity:1"
   d="m 210.08835,277.25212 c 0,0 4.36806,45.77749 6.15498,68.66621 l 31.17202,-35.1662 z"
   id="path18" />
<path
   style="fill:#e5a70c;stroke:#ffcc67;stroke-width:1;stroke-opacity:1"
   d="m 287.22419,185.69717 c 9.62956,-4.4725 23.52793,-9.03272 24.12356,-39.37565 l 7.24701,4.82329 -3.57387,31.92147 -21.74099,37.79714 -24.71921,-10.61127 -6.0557,-21.83639 c 0.0992,-0.0877 15.08963,1.66624 24.7192,-2.71859 z"
   id="path20" />
<path
   style="fill:#ffc431;stroke:#ffcc67;stroke-width:1;stroke-opacity:1"
   d="m 272.23382,323.02961 c 0,0 9.03394,36.92016 15.68528,46.82982 0,0 -32.56184,20.78404 -79.51841,0 l 1.78693,-5.87566 z"
   id="path22" />
<path
   style="fill:#fcc74f;stroke:#ffcc67;stroke-width:1;stroke-opacity:1"
   d="m 247.51462,323.02961 v 56.03794 c -11.31723,-0.26309 -24.52066,-2.7186 -39.2132,-9.20812 l 1.78693,-5.87566 z"
   id="path24" />
<path
   style="fill:#80bc9c;stroke:#ffcc67;stroke-width:1;stroke-opacity:1"
   d="m 297.74723,389.59109 c 0,0 -18.26641,4.73562 -49.63697,4.73562 -31.46983,0 -49.5377,-4.73562 -49.5377,-4.73562 l 9.82813,-19.73166 c 0,0 15.08963,4.73562 39.70957,4.73562 24.61993,0 39.80884,-4.73562 39.80884,-4.73562 z"
   id="path26" />
<path
   style="fill:#9ed8b9;stroke:#ffcc67;stroke-width:1;stroke-opacity:1"
   d="m 248.011,394.32671 c -31.46984,0 -49.5377,-4.73562 -49.5377,-4.73562 l 9.82812,-19.73166 c 0,0 15.08964,4.73562 39.70958,4.73562 z"
   id="path28" />
<path
   style="fill:#80bc9c;stroke:#ffcc67;stroke-width:1;stroke-opacity:1"
   d="m 314.92162,425.10813 -6.8499,-14.733 c -0.59564,-1.31544 -29.08727,-7.98036 -60.06072,-7.98036 -30.97347,0 -59.26654,6.66492 -59.86218,7.98036 l -6.84991,14.733 c -0.29782,0.70156 -0.29782,1.57853 0,2.2801 0.29782,0.70157 0.99273,1.22775 1.78693,1.49084 0.99273,0.26307 24.32211,6.75262 65.02442,6.75262 40.70231,0 64.13096,-6.48955 65.1237,-6.75262 0.79419,-0.26309 1.38983,-0.78927 1.78693,-1.49084 0.3971,-0.70157 0.29783,-1.57854 -0.0992,-2.2801 z"
   id="path30" />
<path
   style="fill:#9ed8b9;stroke:#ffcc67;stroke-width:1;stroke-opacity:1"
   d="m 248.011,402.39477 c -30.97347,0 -59.26654,6.66492 -59.86218,7.98036 l -6.84991,14.733 c -0.29782,0.70156 -0.29782,1.57853 0,2.2801 0.29782,0.70157 0.99273,1.22775 1.78693,1.49084 0.99273,0.26307 24.32211,6.75262 65.02442,6.75262 v -33.23692 z"
   id="path32" />
<path
   style="fill:#ffd16c;stroke:#ffcc67;stroke-width:1;stroke-opacity:1"
   d="m 308.07172,410.37513 c 0,0 -22.03882,5.70026 -60.06072,5.70026 -38.02192,0 -59.86218,-5.70026 -59.86218,-5.70026 l 11.91286,-23.7657 c 0,0 18.2664,5.70026 48.04858,5.70026 29.78219,0 48.14787,-5.70026 48.14787,-5.70026 z"
   id="path34" />
<path
   style="fill:#fcd486;stroke:#ffcc67;stroke-width:1;stroke-opacity:1"
   d="m 248.011,416.07539 c -38.02192,0 -59.86218,-5.70026 -59.86218,-5.70026 l 11.91286,-23.7657 c 0,0 18.2664,5.70026 48.04858,5.70026 v 23.7657 z"
   id="path36" />
<path
   style="fill:#d89319;stroke:#ffcc67;stroke-width:1;stroke-opacity:1"
   d="m 300.52689,202.97333 c 0,0 -8.43828,17.01311 -11.41649,17.01311 -2.97823,0 -18.06786,-10.87435 -18.06786,-10.87435 l -4.66587,-24.46726 z"
   id="path38" />
<path
   style="fill:#e2a01a;stroke:#ffcc67;stroke-width:1;stroke-opacity:1"
   d="m 272.82948,188.32805 c 0,0 -4.56661,4.56022 -1.1913,7.1911 3.27604,2.63091 7.54483,5.87568 10.82087,6.92801 3.27604,1.05236 10.52304,3.42016 13.00488,2.89398 2.38258,-0.52617 6.65135,-1.84162 3.57385,-7.98036 -2.97821,-6.13875 -5.75788,-11.13743 -14.19616,-11.48822 -8.43829,-0.17539 -9.33175,0.61388 -12.01214,2.45549 z"
   id="path40" />
<path
   style="fill:#f2b408;stroke:#ffcc67;stroke-width:1;stroke-opacity:1"
   d="m 311.34775,146.32152 c 0,0 4.16951,-3.68324 6.05571,-2.10472 1.78694,1.57854 8.43828,11.75132 1.78694,31.39528 -6.65135,19.73168 -15.08963,51.12697 -19.25915,61.21205 -4.1695,10.08507 -30.77491,-7.98037 -30.77491,-7.98037 l 0.79419,-19.90706 c 0,0 3.57386,-0.0877 8.93466,1.75393 5.46006,1.84161 12.01214,7.98037 12.01214,7.98037 0,0 41.59576,-60.68586 20.45042,-72.34948 z"
   id="path42" />
<path
   style="fill:#ffc431;stroke:#ffcc67;stroke-width:1;stroke-opacity:1"
   d="m 248.70591,155.88043 c 0,0 16.28092,102.25391 5.46006,138.47248 l 15.58601,-36.48167 0.69491,-28.93981 0.59565,-19.73164 c 0,0 -12.01214,-65.50916 -16.28093,-65.50916 -4.26878,-0.0876 -5.75788,4.47252 -6.0557,12.1898 z"
   id="path44" />
<path
   style="fill:#e2a50c;stroke:#ffcc67;stroke-width:1;stroke-opacity:1"
   d="m 216.14406,345.39216 c 0,0 53.60792,-59.10732 54.20357,-116.6361 0,0 12.01214,9.03273 29.48435,7.98035 0,0 -11.4165,22.36259 -11.4165,44.72514 0,0 0,70.33245 -78.32713,82.52222 z"
   id="path46" />
<path
   style="fill:#d89a0f;stroke:#ffcc67;stroke-width:1;stroke-opacity:1"
   d="m 216.24333,354.51259 c 0,0 69.09466,-63.40445 69.59103,-109.09423 0,0 12.30997,45.86517 -69.59103,109.09423 z"
   id="path48" />

<g
   id="g50">
</g>
<g
   id="g52">
</g>
<g
   id="g54">
</g>
<g
   id="g56">
</g>
<g
   id="g58">
</g>
<g
   id="g60">
</g>
<g
   id="g62">
</g>
<g
   id="g64">
</g>
<g
   id="g66">
</g>
<g
   id="g68">
</g>
<g
   id="g70">
</g>
<g
   id="g72">
</g>
<g
   id="g74">
</g>
<g
   id="g76">
</g>
<g
   id="g78">
</g>
</svg>
